<?xml version="1.0" standalone="no"?>
<svg xmlns="http://www.w3.org/2000/svg" viewBox="0 0 82 66" width="82" height="66"><g fill="#c91fca" color="#c91fca" transform="translate(23.289 0) scale(0.6603774) "><svg width="53.0" height="48.0" x="0.0" y="0.0" viewBox="0 0 53 48"><path fill="currentColor" fill-rule="evenodd" d="M14.18 0L0 8.432v16.864l14.18 8.435L24 27.846v11.72L38.181 48l14.181-8.434V22.704l-14.181-8.433-9.818 5.883V8.432L14.18 0zM4.364 22.814V10.915l9.817-5.84L24 10.915v11.853l-9.819 5.885-9.817-5.839zm23.999 14.27V25.23l9.818-5.884 9.818 5.837v11.9L38.18 42.92l-9.818-5.837z"></path></svg></g><line x1="24.338000000000005" y1="37.698113207547166" x2="57.238" y2="37.698113207547166" stroke="#ffffff" stroke-linecap="round"></line><path fill="#ffffff" fill-rule="nonzero" d="M18.22 17.40L12.60 17.40L11.90 15.07L6.12 15.07L5.42 17.40L0 17.40L6.02 0.89L12.19 0.89L18.22 17.40ZM8.98 5.50L7.22 11.38L10.80 11.38L9.07 5.50L8.98 5.50ZM24.82 17.40L20.04 17.40L20.04 0L24.82 0L24.82 17.40ZM36.22 4.44Q38.78 4.44 40.18 6.12Q41.57 7.80 41.57 11.09L41.57 11.09Q41.57 14.35 40.18 16.02Q38.78 17.69 36.22 17.69L36.22 17.69Q34.01 17.69 32.66 16.25L32.66 16.25L32.66 22.13L27.89 22.13L27.89 4.73L31.78 4.73L32.18 6.53Q33.58 4.44 36.22 4.44L36.22 4.44ZM34.73 7.97Q33.67 7.97 33.14 8.71Q32.62 9.46 32.62 10.66L32.62 10.66L32.62 11.45Q32.62 12.65 33.14 13.40Q33.67 14.16 34.73 14.16L34.73 14.16Q36.79 14.16 36.79 11.69L36.79 11.69L36.79 10.42Q36.79 7.97 34.73 7.97L34.73 7.97ZM48.82 3.24L44.04 3.24L44.04 0L48.82 0L48.82 3.24ZM48.82 17.40L44.04 17.40L44.04 4.73L48.82 4.73L48.82 17.40ZM60.60 4.44Q62.81 4.44 63.91 5.66Q65.02 6.89 65.02 9.19L65.02 9.19L65.02 17.40L60.24 17.40L60.24 9.77Q60.24 8.95 59.82 8.46Q59.40 7.97 58.63 7.97L58.63 7.97Q57.74 7.97 57.19 8.54Q56.64 9.12 56.64 9.96L56.64 9.96L56.64 17.40L51.86 17.40L51.86 4.73L55.78 4.73L56.09 6.65Q56.83 5.64 58.04 5.04Q59.26 4.44 60.60 4.44L60.60 4.44ZM74.42 4.44Q77.90 4.44 79.74 6.07Q81.58 7.70 81.58 11.06L81.58 11.06L81.58 11.88L72.07 11.88Q72.07 13.25 72.68 13.94Q73.30 14.64 74.62 14.64L74.62 14.64Q75.82 14.64 76.38 14.14Q76.94 13.63 76.94 12.79L76.94 12.79L81.58 12.79Q81.58 15.10 79.82 16.39Q78.07 17.69 74.71 17.69L74.71 17.69Q71.18 17.69 69.24 16.04Q67.30 14.40 67.30 11.06L67.30 11.06Q67.30 7.80 69.19 6.12Q71.09 4.44 74.42 4.44L74.42 4.44ZM74.62 7.49Q72.36 7.49 72.10 9.62L72.10 9.62L76.75 9.62Q76.75 8.64 76.19 8.06Q75.62 7.49 74.62 7.49L74.62 7.49Z" transform="translate(0, 43.699)"></path></svg>